<svg xmlns="http://www.w3.org/2000/svg" viewBox="0 0 2180.74 436"><title>Ryan Sullivan Name</title><g id="Layer-N2"><path id="N2" d="M2356.09,504V432c0-39.5-32.5-72-72-72s-72,32.5-72,72" transform="translate(-177.34 -214)" style="fill:none;stroke:#231f20;stroke-miterlimit:10;stroke-width:4px"/><line id="N1" x1="2034.74" y1="173" x2="2034.74" y2="290" style="fill:none;stroke:#231f20;stroke-miterlimit:10;stroke-width:4px"/></g><g id="Layer-A2"><line id="A2" x1="1962.74" y1="245.65" x2="1962.74" y2="290.65" style="fill:none;stroke:#231f20;stroke-miterlimit:10;stroke-width:4px"/><path id="A1" d="M2140.09,387.65v72c-36.35,39.54-87.14,47.84-117,27-17.05-11.9-27.06-33.34-27-54,.11-37.6,36.37-67.28,72-72C2108.49,355.3,2137,384.44,2140.09,387.65Z" transform="translate(-177.34 -214)" style="fill:none;stroke:#231f20;stroke-miterlimit:10;stroke-width:4px"/></g><g id="Layer-V1"><line id="V2" x1="1674.74" y1="290" x2="1746.74" y2="146" style="fill:none;stroke:#231f20;stroke-miterlimit:10;stroke-width:4px"/><line id="V1" x1="1602.74" y1="146" x2="1674.74" y2="290" style="fill:none;stroke:#231f20;stroke-miterlimit:10;stroke-width:4px"/></g><g id="Layer-I1"><path id="I2" d="M1708.09,333a9,9,0,1,1,9-9A9,9,0,0,1,1708.09,333Z" transform="translate(-177.34 -214)" style="fill:none;stroke:#231f20;stroke-miterlimit:10;stroke-width:4px"/><line id="I1" x1="1530.74" y1="146" x2="1530.74" y2="290" style="fill:none;stroke:#231f20;stroke-miterlimit:10;stroke-width:4px"/></g><g id="Layer-L2"><line id="L1" x1="1458.74" y1="2" x2="1458.74" y2="290" style="fill:none;stroke:#231f20;stroke-miterlimit:10;stroke-width:4px"/></g><g id="Layer-L1"><line id="L1-2" data-name="L1" x1="1386.74" y1="2" x2="1386.74" y2="290" style="fill:none;stroke:#231f20;stroke-miterlimit:10;stroke-width:4px"/></g><g id="Layer-U1"><line id="U2" x1="1314.74" y1="218" x2="1314.74" y2="290" style="fill:none;stroke:#231f20;stroke-miterlimit:10;stroke-width:4px"/><path id="U1" d="M1492.09,360v72c0,39.5-32.5,72-72,72s-72-32.5-72-72V360" transform="translate(-177.34 -214)" style="fill:none;stroke:#231f20;stroke-miterlimit:10;stroke-width:4px"/></g><g id="Layer-S1"><path id="S1" d="M1276.26,288c0-39.5-32.5-72-72-72-45.73,0-74.7,43.56-72,72,1.45,15.31,25,34.21,72,72,60.15,48.33,70.55,56.69,72,72,2.7,28.44-26.27,72-72,72-39.5,0-72-32.5-72-72" transform="translate(-177.34 -214)" style="fill:#fff;stroke:#231f20;stroke-miterlimit:10;stroke-width:4px"/></g><g id="Letter-N1"><path id="N2-2" data-name="N2" d="M971.34,504V432c0-39.5-32.5-72-72-72s-72,32.5-72,72" transform="translate(-177.34 -214)" style="fill:none;stroke:#231f20;stroke-miterlimit:10;stroke-width:4px"/><line id="N1-2" data-name="N1" x1="650" y1="173" x2="650" y2="290" style="fill:none;stroke:#231f20;stroke-miterlimit:10;stroke-width:4px"/></g><g id="Letter-A1"><line id="A2-2" data-name="A2" x1="578" y1="245.65" x2="578" y2="290.65" style="fill:none;stroke:#231f20;stroke-miterlimit:10;stroke-width:4px"/><path id="A1-2" data-name="A1" d="M755.34,387.65v72c-36.35,39.54-87.14,47.84-117,27-17.05-11.9-27.06-33.34-27-54,.11-37.6,36.37-67.28,72-72C723.75,355.3,752.29,384.44,755.34,387.65Z" transform="translate(-177.34 -214)" style="fill:none;stroke:#231f20;stroke-miterlimit:10;stroke-width:4px"/></g><g id="Letter-Y1"><path id="Y2" d="M539.34,432V576c0,39.5-32.5,72-72,72s-72-32.5-72-72" transform="translate(-177.34 -214)" style="fill:none;stroke:#231f20;stroke-miterlimit:10;stroke-width:4px"/><path id="Y1" d="M539.34,360v72c0,39.5-32.5,72-72,72s-72-32.5-72-72V360" transform="translate(-177.34 -214)" style="fill:none;stroke:#231f20;stroke-miterlimit:10;stroke-width:4px"/></g><g id="Letter-R1"><path id="R2" d="M323.34,504a392.08,392.08,0,0,0-36-90,390.81,390.81,0,0,0-36-54" transform="translate(-177.34 -214)" style="fill:none;stroke:#231f20;stroke-miterlimit:10;stroke-width:4px"/><path id="R1" d="M179.34,360h72c39.5,0,72-32.5,72-72s-32.5-72-72-72h-72V504" transform="translate(-177.34 -214)" style="fill:none;stroke:#231f20;stroke-miterlimit:10;stroke-width:4px"/></g></svg>