<svg xmlns="http://www.w3.org/2000/svg" viewBox="0 0 436 290.33"><title>Ryan Sullivan Name - 1 Layer</title><g id="Layer_1" data-name="Layer 1"><line x1="2" y1="290" x2="2" y2="2" style="fill:none;stroke:#231f20;stroke-miterlimit:10;stroke-width:4px"/></g><g id="Layer_2" data-name="Layer 2"><line x1="2" y1="2" x2="74" y2="2" style="fill:none;stroke:#231f20;stroke-miterlimit:10;stroke-width:4px"/></g><g id="Layer_3" data-name="Layer 3"><path d="M269.34,216c39.5,0,72,32.5,72,72s-32.5,72-72,72" transform="translate(-195.34 -214)" style="fill:none;stroke:#231f20;stroke-miterlimit:10;stroke-width:4px"/></g><g id="Layer_4" data-name="Layer 4"><line x1="74" y1="146" x2="2" y2="146" style="fill:none;stroke:#231f20;stroke-miterlimit:10;stroke-width:4px"/></g><g id="Layer_5" data-name="Layer 5"><path d="M269.34,360a273.72,273.72,0,0,1,72,144" transform="translate(-195.34 -214)" style="fill:none;stroke:#231f20;stroke-miterlimit:10;stroke-width:4px"/></g><g id="Layer_6" data-name="Layer 6"><path d="M629.34,504a273.72,273.72,0,0,0-72-144c39.5,0,72-32.5,72-72s-32.5-72-72-72h-72V360h72" transform="translate(-195.34 -214)" style="fill:none;stroke:#231f20;stroke-miterlimit:10;stroke-width:4px"/></g></svg>